# xmcd
#
# Track frame offsets:
#	150
#	15419
#	30530
#	41554
#	59037
#	74428
#	89748
#	109100
#	124612
#	139731
#	155898
#	170029
#	185994
#	198718
#	213825
#
# Disc length: 3052 seconds
# Revision: 0
# Processed by: cddbd v1.5.2PL0 Copyright (c) Steve Scherf et al.
# Submitted via: dBpowerAMP V12.0
#
DISCID=e80bea0f
DTITLE=Various Artist - 100% country
DYEAR=2003
DGENRE=Country
TTITLE0=Billy Ray Cyrus - Achy, breaky heart
TTITLE1=Mary Chapin Carpenter - Down at the twist and shout
TTITLE2=Alan Jackson - Chattahoochee
TTITLE3=Clint Black - Nothing but the taillights
TTITLE4=Dixie Chicks - Tonight the heartaches on me
TTITLE5=James House - This is mi, missing you
TTITLE6=The maverics - All you ever do is bring me down
TTITLE7=Brooks and dunn - My Maria
TTITLE8=Tracy Byrd - Heaven in my woman eyes
TTITLE9=George Strait - Write this down
TTITLE10=Ricky Skaggs - Highway 40 blues
TTITLE11=Patty Loveless - Blame it on your heart
TTITLE12=Pam Tillis - Mi vida loca
TTITLE13=Kathy Mattea - Eighteen weels and a dozen roses
TTITLE14=Sawyer Brown - Cafe on the corner
EXTD=
EXTT0=
EXTT1=
EXTT2=
EXTT3=
EXTT4=
EXTT5=
EXTT6=
EXTT7=
EXTT8=
EXTT9=
EXTT10=
EXTT11=
EXTT12=
EXTT13=
EXTT14=
PLAYORDER=
